<svg width="70" height="70" viewBox="0 0 70 70" fill="none" xmlns="http://www.w3.org/2000/svg">
<g clip-path="url(#clip0_383_275)">
<path d="M33.2667 1.20422C33.1684 1.155 30.8057 0 26.2323 0C23.0357 0 16.8927 0.605254 11.6648 4.65883C6.53308 8.63789 3.73335 14.7658 3.33044 22.8814C2.15001 25.967 1.42185 29.2228 1.18382 32.5397C1.14335 33.1045 1.56841 33.5954 2.13319 33.636C2.15821 33.6377 2.18296 33.6387 2.20757 33.6387C2.74036 33.6387 3.19044 33.2265 3.22927 32.6866C3.41698 30.0703 3.92954 27.4947 4.74548 25.0201C6.42028 24.7745 13.6702 23.225 19.8146 14.3497C26.7828 4.28449 32.8577 3.15328 32.9652 3.13482C33.4047 3.0666 33.7506 2.72262 33.8206 2.28279C33.891 1.84078 33.6668 1.40424 33.2667 1.20422ZM11.439 7.55945V10.6281C9.75308 12.2578 8.23017 14.0596 6.90837 16.0113C6.66706 16.3674 6.43382 16.7285 6.20686 17.093C7.26165 12.8239 9.1753 9.75926 11.439 7.55945ZM5.59354 22.7451C6.37079 20.8797 7.32687 19.0868 8.45151 17.3942H14.5838C12.4404 19.4778 10.3799 20.7613 8.80124 21.5343C7.51144 22.1659 6.39882 22.5334 5.59354 22.7451ZM18.1286 13.1821C17.5871 13.9645 17.0364 14.6824 16.4836 15.3433H9.9371C12.8272 11.6651 16.5038 8.64418 20.6821 6.53803C21.1878 6.28318 21.3911 5.66645 21.1361 5.16086C20.8812 4.655 20.2646 4.4517 19.759 4.70682C17.5213 5.83475 15.4188 7.20945 13.4899 8.79498V5.85156C18.2188 2.4891 23.7207 2.05078 26.2323 2.05078C27.5189 2.05078 28.605 2.15031 29.4886 2.28635C26.7733 3.68895 22.605 6.71617 18.1286 13.1821Z" fill="#CEAD66"/>
<path d="M37.3136 3.22939C39.9299 3.4171 42.5057 3.92966 44.9803 4.7456C45.2191 6.3705 46.6873 13.2458 54.8858 19.2692C55.3421 19.6046 55.9841 19.5064 56.3192 19.0499C56.6545 18.5936 56.5564 17.9518 56.0999 17.6166C55.5901 17.242 55.1115 16.8634 54.6567 16.4832V9.93708C58.3348 12.8272 61.3558 16.5038 63.4619 20.6821C63.6422 21.0397 64.0035 21.246 64.3783 21.246C64.5335 21.246 64.691 21.2108 64.8391 21.1361C65.3448 20.8813 65.5481 20.2645 65.2931 19.759C64.1652 17.5213 62.7905 15.4188 61.205 13.4899H64.1488C67.5111 18.2188 67.9493 23.7207 67.9493 26.2323C67.9493 27.5201 67.8496 28.6071 67.7135 29.491C66.5658 27.2661 64.3335 24.0719 60.032 20.5735C59.5926 20.2163 58.9468 20.2826 58.5895 20.722C58.2321 21.1613 58.2987 21.8073 58.738 22.1645C65.9758 28.0514 66.858 32.9209 66.865 32.9624C66.9322 33.404 67.2779 33.7514 67.7192 33.8209C67.7728 33.8294 67.8261 33.8335 67.8792 33.8335C68.2628 33.8335 68.6203 33.6177 68.7959 33.2666C68.8451 33.1683 70.0001 30.8057 70.0001 26.2323C70.0001 23.0357 69.3948 16.8927 65.3412 11.6648C61.3622 6.53306 55.2343 3.73347 47.1188 3.33042C44.0332 2.14999 40.7774 1.42183 37.4605 1.1838C36.8977 1.14347 36.4049 1.56826 36.3643 2.13318C36.3236 2.6981 36.7488 3.18892 37.3136 3.22939ZM47.2609 5.59599C49.1242 6.37283 50.9151 7.32808 52.606 8.4515V14.5835C49.1 10.9705 47.758 7.45714 47.2609 5.59599ZM62.4413 11.4389H59.3721C57.7424 9.75306 55.9406 8.23015 53.9889 6.90835C53.6325 6.66704 53.2713 6.43353 52.9067 6.20644C57.1763 7.26122 60.2412 9.17501 62.4413 11.4389Z" fill="#CEAD66"/>
<path d="M67.8667 36.3643C67.3039 36.3256 66.8111 36.7487 66.7705 37.3136C66.5827 39.9299 66.0702 42.5055 65.2542 44.9802C63.5794 45.2257 56.3295 46.7753 50.1851 55.6505C43.217 65.7157 37.142 66.847 37.0345 66.8654C36.595 66.9336 36.2491 67.2776 36.1791 67.7174C36.1087 68.1592 36.3329 68.5957 36.7332 68.7957C36.8315 68.845 39.1941 70 43.7675 70C46.9641 70 53.1072 69.3947 58.335 65.3411C63.4668 61.3621 66.2664 55.2342 66.6694 47.1187C67.8498 44.0331 68.578 40.7773 68.816 37.4603C68.8566 36.8956 68.4316 36.4047 67.8667 36.3643ZM64.4065 47.255C63.6292 49.1204 62.6731 50.9133 61.5485 52.6059H55.4162C57.5596 50.5223 59.6201 49.2388 61.1988 48.4658C62.4886 47.8342 63.6012 47.4667 64.4065 47.255ZM40.5114 67.7138C43.2267 66.3112 47.3949 63.2839 51.8714 56.8178C52.4129 56.0355 52.9636 55.3176 53.5164 54.6567H60.0629C57.1728 58.3348 53.4962 61.3558 49.3179 63.4619C48.8122 63.7168 48.6089 64.3335 48.8639 64.8391C49.0442 65.1968 49.4054 65.4031 49.7803 65.4031C49.9355 65.4031 50.093 65.3678 50.241 65.2931C52.4787 64.1652 54.5812 62.7905 56.5101 61.205V64.1485C51.7812 67.511 46.2793 67.9493 43.7677 67.9493C42.4811 67.9493 41.395 67.8498 40.5114 67.7138ZM58.561 62.4408V59.3721C60.2469 57.7424 61.7698 55.9406 63.0916 53.989C63.3329 53.6328 63.5662 53.2717 63.7931 52.9072C62.7383 57.1762 60.8247 60.2408 58.561 62.4408Z" fill="#CEAD66"/>
<path d="M32.6864 66.7707C27.2289 66.3791 21.948 64.5742 17.394 61.5486V55.4047C19.059 57.111 20.4049 58.9662 21.4132 60.9561C21.6691 61.4612 22.2862 61.6632 22.7913 61.4072C23.2965 61.1513 23.4984 60.5343 23.2425 60.0291C21.3328 56.2606 18.3407 52.9486 14.3495 50.1853C4.24484 43.1899 3.14426 37.0945 3.13551 37.0409C3.06961 36.5984 2.72439 36.2497 2.28252 36.1793C1.84051 36.1089 1.40424 36.3331 1.20422 36.7335C1.155 36.8318 0 39.1944 0 43.7678C0 46.8941 0.581602 52.913 4.47727 58.0974C8.44375 63.3761 14.6363 66.2591 22.883 66.6703C25.9681 67.8504 29.2235 68.5784 32.5397 68.8164C32.5648 68.8182 32.5895 68.8192 32.6141 68.8192C33.1469 68.8192 33.597 68.407 33.6358 67.8671C33.6764 67.302 33.2512 66.8112 32.6864 66.7707ZM2.05078 43.7678C2.05078 42.4812 2.15031 41.3949 2.28621 40.5115C3.68895 43.2268 6.71604 47.3951 13.1821 51.8716C13.943 52.3984 14.6621 52.9469 15.3433 53.5142V60.0631C11.6651 57.173 8.64418 53.4964 6.53803 49.3181C6.28305 48.8123 5.66645 48.609 5.16086 48.8641C4.65514 49.1189 4.45184 49.7357 4.70682 50.2413C5.83475 52.4789 7.20945 54.5814 8.79498 56.5104H5.85635C2.48418 51.7706 2.05078 46.2571 2.05078 43.7678ZM7.56492 58.5611H10.628C12.2577 60.247 14.0595 61.7699 16.0111 63.0917C16.3637 63.3306 16.7211 63.5616 17.0819 63.7865C12.8237 62.7305 9.76172 60.821 7.56492 58.5611Z" fill="#CEAD66"/>
<path d="M33.4475 42.812V26.5815C33.4475 26.0153 32.9884 25.5562 32.4221 25.5562C31.8558 25.5562 31.3967 26.0153 31.3967 26.5815V42.812C31.3967 43.3783 31.8558 43.8374 32.4221 43.8374C32.9884 43.8374 33.4475 43.3783 33.4475 42.812Z" fill="#CEAD66"/>
<path d="M22.5902 25.5562H17.8757C17.3094 25.5562 16.8503 26.0153 16.8503 26.5815V42.812C16.8503 43.0847 16.959 43.3463 17.1522 43.5386C17.3444 43.73 17.6046 43.8374 17.8757 43.8374H17.8802C17.9236 43.8372 22.233 43.8181 23.4137 43.8181C26.388 43.8181 28.8078 41.3983 28.8078 38.424C28.8078 36.3713 27.655 34.583 25.9629 33.6718C26.8199 32.8106 27.3503 31.6243 27.3503 30.3163C27.3503 27.6914 25.2149 25.5562 22.5902 25.5562ZM22.5902 27.6069C24.0841 27.6069 25.2994 28.8224 25.2994 30.3162C25.2994 31.8099 24.084 33.0254 22.5902 33.0254C22.2453 33.0254 18.9011 33.0297 18.9011 33.0297V27.6068H22.5902V27.6069ZM23.4137 41.7673C22.5916 41.7673 20.2645 41.7765 18.9011 41.7822V35.0883C19.4717 35.086 23.4137 35.0807 23.4137 35.0807C25.2572 35.0807 26.757 36.5805 26.757 38.424C26.757 40.2675 25.2572 41.7673 23.4137 41.7673Z" fill="#CEAD66"/>
<path d="M45.3074 43.8374C50.3475 43.8374 54.448 39.7369 54.448 34.6968C54.448 29.6566 50.3475 25.5562 45.3074 25.5562C40.2672 25.5562 36.1667 29.6566 36.1667 34.6968C36.1667 39.7369 40.2671 43.8374 45.3074 43.8374ZM45.3074 27.6069C49.2167 27.6069 52.3972 30.7874 52.3972 34.6968C52.3972 38.6061 49.2167 41.7866 45.3074 41.7866C41.398 41.7866 38.2175 38.6061 38.2175 34.6968C38.2175 30.7874 41.3979 27.6069 45.3074 27.6069Z" fill="#CEAD66"/>
</g>
<defs>
<clipPath id="clip0_383_275">
<rect width="70" height="70" fill="white"/>
</clipPath>
</defs>
</svg>
